<svg className="landing-svg" xmlns="http://www.w3.org/2000/svg">

<g id="lines">
<g id="Group 1">
<path id="Vector 71" d="M238 79V30L262 14V0" stroke="black"/>
<path id="Vector 74" d="M266 79V65L279 52H386L405 39V21" stroke="black"/>
<path id="Vector 73" d="M257 78V56" stroke="black"/>
<path id="Vector 72" d="M247 78V45L262 32" stroke="black"/>
<path id="Vector 55" d="M479 322L504 302V284" stroke="black"/>
<path id="Vector 54" d="M479 344L517 313V271L500 247V225" stroke="black"/>
<path id="Vector 53" d="M480 363L532 323V243" stroke="black"/>
<path id="Vector 56" d="M450 378L462 398L450 414" stroke="black"/>
<path id="Vector 58" d="M414 378L426 398L414 414" stroke="black"/>
<path id="Vector 57" d="M432 378L444 398L432 414" stroke="black"/>
<path id="Vector 59" d="M163 479V446L180 420" stroke="black"/>
<path id="Vector 60" d="M32 314H0" stroke="black"/>
<path id="Vector 61" d="M32 314H14" stroke="black" stroke-width="3"/>
<path id="Vector 68" d="M32 361H0" stroke="black"/>
<path id="Vector 69" d="M32 361H14" stroke="black" stroke-width="3"/>
<path id="Vector 66" d="M32 349H0" stroke="black"/>
<path id="Vector 67" d="M32 349H14" stroke="black" stroke-width="3"/>
<path id="Vector 64" d="M32 338H0" stroke="black"/>
<path id="Vector 65" d="M32 338H14" stroke="black" stroke-width="3"/>
<path id="Vector 62" d="M32 326H0" stroke="black"/>
<path id="Vector 63" d="M32 326H14" stroke="black" stroke-width="3"/>
<path id="Vector 70" d="M32 287L6 239V190" stroke="black"/>
<path id="Vector 75" d="M276 79L290 66H399" stroke="black"/>
</g>
</g>

</svg>