<svg preserveAspectRatio="none" viewBox="0 0 1922 1082" fill="none" xmlns="http://www.w3.org/2000/svg">
<!-- <rect x="1" y="1" width="1920" height="1080" stroke="current"/> -->
<path d="M132 1081V1048.86L180.677 1010H279.902L331.387 1048.86H362.278L381 1060.82" stroke="current" stroke-width="2" stroke-linejoin="bevel"/>
<path d="M409 965H449.278L483 940" stroke="current" stroke-width="2" stroke-linejoin="round"/>
<path d="M302 970H347.815L396.435 1009.14H475.91L489 1018" stroke="current" stroke-width="2" stroke-linejoin="round"/>
<path d="M153 997L200.839 957.305V854.699L251.492 818H370.62L380 826.987" stroke="current" stroke-width="2" stroke-linejoin="round"/>
<path d="M230 951V907.039H343.244L388.167 875H449" stroke="current" stroke-width="2" stroke-linejoin="round"/>
<path d="M264 935H339.698L396.705 887.94H505.113L521 873" stroke="current" stroke-width="2" stroke-linejoin="round"/>
<path d="M103 1081V859.736L45 812.642V749.851L66.5161 731.911V705" stroke="current" stroke-width="2" stroke-linejoin="round"/>
<path d="M125 926V808.385L206.562 743.959H291.875L335 708" stroke="current" stroke-width="2" stroke-linejoin="round"/>
<path d="M89 1081V866.538L24 813.484V741" stroke="current" stroke-width="2" stroke-linejoin="round"/>
<path d="M70 1081V1029" stroke="current" stroke-width="2" stroke-linejoin="round"/>
<path d="M41.8485 1081L55 1069.08V1016.19L24 990.855V932" stroke="current" stroke-width="2" stroke-linejoin="round"/>
<path d="M59 992L43 977.851V957" stroke="current" stroke-width="2" stroke-linejoin="round"/>
<path d="M72 964V883.31L8 828.77V706.989L29.6471 688.31V639" stroke="current" stroke-width="2" stroke-linejoin="round"/>
<path d="M96 820V777.455L187 705.799V664" stroke="current" stroke-width="2" stroke-linejoin="round"/>
<path d="M118 1081V1009.29L147.11 986.133V831.506L225.049 771H330.22L349 786.687" stroke="current" stroke-width="2" stroke-linejoin="round"/>
<path d="M226 970H255.088L274.793 955.926H340.476L371.441 930H439" stroke="current" stroke-width="2" stroke-linejoin="round"/>
<path d="M130 1081V1039.24L185.138 993H295.415L345.88 1035.51H376.72L387 1043.71" stroke="current" stroke-width="2" stroke-linejoin="round"/>
<path d="M1597 67H1507.45L1457.01 102.692H1337.62L1316 115" stroke="current" stroke-width="2" stroke-linejoin="round"/>
<path d="M1439 42H1391.34L1353 65" stroke="current" stroke-width="2" stroke-linejoin="round"/>
<path d="M1880 2V75.9535L1905.62 95.0581V198.593L1921 214" stroke="current" stroke-width="2" stroke-linejoin="round"/>
<path d="M1834 1L1860 18.3091V69" stroke="current" stroke-width="2" stroke-linejoin="round"/>
<path d="M1820 18L1841 28.4318V45" stroke="current" stroke-width="2" stroke-linejoin="round"/>
<path d="M1788 3V116.662L1862 164.845V226" stroke="current" stroke-width="2" stroke-linejoin="round"/>
<path d="M1774 2V119.971L1841 163.206V214.471L1810.08 231.147V254" stroke="current" stroke-width="2" stroke-linejoin="round"/>
<path d="M1754 2L1717.99 27.3502V152.864L1636.72 198H1523.55L1504 188.107" stroke="current" stroke-width="2" stroke-linejoin="round"/>
<path d="M1700 24L1666.14 41.8161V125.982L1608.69 161H1479.42L1463 153.628" stroke="current" stroke-width="2" stroke-linejoin="round"/>
<path d="M1706 1L1668.91 24H1570L1536 1" stroke="current" stroke-width="2" stroke-linejoin="round"/>
<path d="M1455 2L1507.06 34H1553" stroke="current" stroke-width="2" stroke-linejoin="round"/>
<path d="M1833 96L1892.35 131.157V248.964L1921 265" stroke="current" stroke-width="2" stroke-linejoin="round"/>
<path d="M1808 42V108.13L1885 153.865V275" stroke="current" stroke-width="2" stroke-linejoin="round"/>
<path d="M1920 299L1850 330.401V448" stroke="current" stroke-width="2" stroke-linejoin="round"/>
<path d="M1921 328L1871 356.285V438.065L1907.46 457.126V518" stroke="current" stroke-width="2" stroke-linejoin="round"/>
<path d="M1836 253V299.948L1735.83 358.015V422.26L1678 455" stroke="current" stroke-width="2" stroke-linejoin="round"/>
<path d="M1801 351L1770.11 365.154V436.538L1697 479" stroke="current" stroke-width="2" stroke-linejoin="round"/>
<path d="M1826 339V388.538L1804.66 402.162V474.612L1764 500" stroke="current" stroke-width="2" stroke-linejoin="round"/>
<path d="M1784 161V192.863L1680 253.525V286" stroke="current" stroke-width="2" stroke-linejoin="round"/>
<path d="M1806 191V213.817L1756 244.033V302" stroke="current" stroke-width="2" stroke-linejoin="round"/>
<path d="M1788 259V314.147L1732.58 347.235H1650.47L1593 384" stroke="current" stroke-width="2" stroke-linejoin="round"/>
<path d="M1630 50V86.0874H1505.88L1461.78 113H1391" stroke="current" stroke-width="2" stroke-linejoin="round"/>
<circle cx="1309.5" cy="118.5" r="6.5" stroke="current" stroke-width="2"/>
<circle cx="1814.5" cy="15.5" r="6.5" stroke="current" stroke-width="2"/>
<circle cx="1787.5" cy="253.5" r="6.5" stroke="current" stroke-width="2"/>
<circle cx="1907.5" cy="525.5" r="6.5" stroke="current" stroke-width="2"/>
<circle cx="1849.5" cy="454.5" r="6.5" stroke="current" stroke-width="2"/>
<circle cx="1825.5" cy="333.5" r="6.5" stroke="current" stroke-width="2"/>
<circle cx="1759.5" cy="503.5" r="6.5" stroke="current" stroke-width="2"/>
<circle cx="1691.5" cy="481.5" r="6.5" stroke="current" stroke-width="2"/>
<circle cx="1806.5" cy="349.5" r="6.5" stroke="current" stroke-width="2"/>
<circle cx="1836.5" cy="247.5" r="6.5" stroke="current" stroke-width="2"/>
<circle cx="1671.5" cy="455.5" r="6.5" stroke="current" stroke-width="2"/>
<circle cx="1588.5" cy="388.5" r="6.5" stroke="current" stroke-width="2"/>
<circle cx="30.5" cy="631.5" r="6.5" stroke="current" stroke-width="2"/>
<circle cx="43.5" cy="950.5" r="6.5" stroke="current" stroke-width="2"/>
<circle cx="72.5" cy="971.5" r="6.5" stroke="current" stroke-width="2"/>
<circle cx="70.5" cy="1021.5" r="6.5" stroke="current" stroke-width="2"/>
<circle cx="64.5" cy="993.5" r="6.5" stroke="current" stroke-width="2"/>
<circle cx="24.5" cy="925.5" r="6.5" stroke="current" stroke-width="2"/>
<circle cx="353.5" cy="790.5" r="6.5" stroke="current" stroke-width="2"/>
<circle cx="125.5" cy="932.5" r="6.5" stroke="current" stroke-width="2"/>
<circle cx="495.5" cy="1021.5" r="6.5" stroke="current" stroke-width="2"/>
<circle cx="456.5" cy="874.5" r="6.5" stroke="current" stroke-width="2"/>
<circle cx="445.5" cy="929.5" r="6.5" stroke="current" stroke-width="2"/>
<circle cx="524.5" cy="867.5" r="6.5" stroke="current" stroke-width="2"/>
<circle cx="488.5" cy="935.5" r="6.5" stroke="current" stroke-width="2"/>
<circle cx="402.5" cy="965.5" r="6.5" stroke="current" stroke-width="2"/>
<circle cx="295.5" cy="969.5" r="6.5" stroke="current" stroke-width="2"/>
<circle cx="258.5" cy="934.5" r="6.5" stroke="current" stroke-width="2"/>
<circle cx="384.5" cy="831.5" r="6.5" stroke="current" stroke-width="2"/>
<circle cx="218.5" cy="970.5" r="6.5" stroke="current" stroke-width="2"/>
<circle cx="230.5" cy="958.5" r="6.5" stroke="current" stroke-width="2"/>
<circle cx="393.5" cy="1047.5" r="6.5" stroke="current" stroke-width="2"/>
<circle cx="386.5" cy="1065.5" r="6.5" stroke="current" stroke-width="2"/>
<circle cx="148.5" cy="1000.5" r="6.5" stroke="current" stroke-width="2"/>
<circle cx="339.5" cy="704.5" r="6.5" stroke="current" stroke-width="2"/>
<circle cx="95.5" cy="825.5" r="6.5" stroke="current" stroke-width="2"/>
<circle cx="187.5" cy="656.5" r="6.5" stroke="current" stroke-width="2"/>
<circle cx="24.5" cy="734.5" r="6.5" stroke="current" stroke-width="2"/>
<circle cx="66.5" cy="697.5" r="6.5" stroke="current" stroke-width="2"/>
<circle cx="1755.5" cy="308.5" r="6.5" stroke="current" stroke-width="2"/>
<circle cx="1679.5" cy="293.5" r="6.5" stroke="current" stroke-width="2"/>
<circle cx="1810.5" cy="259.5" r="6.5" stroke="current" stroke-width="2"/>
<circle cx="1885.5" cy="280.5" r="6.5" stroke="current" stroke-width="2"/>
<circle cx="1861.5" cy="231.5" r="6.5" stroke="current" stroke-width="2"/>
<circle cx="1807.5" cy="183.5" r="6.5" stroke="current" stroke-width="2"/>
<circle cx="1860.5" cy="76.5" r="6.5" stroke="current" stroke-width="2"/>
<circle cx="1827.5" cy="92.5" r="6.5" stroke="current" stroke-width="2"/>
<circle cx="1808.5" cy="35.5" r="6.5" stroke="current" stroke-width="2"/>
<circle cx="1840.5" cy="50.5" r="6.5" stroke="current" stroke-width="2"/>
<circle cx="1783.5" cy="153.5" r="6.5" stroke="current" stroke-width="2"/>
<circle cx="1704.5" cy="20.5" r="6.5" stroke="current" stroke-width="2"/>
<circle cx="1498.5" cy="183.5" r="6.5" stroke="current" stroke-width="2"/>
<circle cx="1629.5" cy="42.5" r="6.5" stroke="current" stroke-width="2"/>
<circle cx="1458.5" cy="149.5" r="6.5" stroke="current" stroke-width="2"/>
<circle cx="1383.5" cy="113.5" r="6.5" stroke="current" stroke-width="2"/>
<circle cx="1560.5" cy="34.5" r="6.5" stroke="current" stroke-width="2"/>
<circle cx="1446.5" cy="42.5" r="6.5" stroke="current" stroke-width="2"/>
<circle cx="1604.5" cy="66.5" r="6.5" stroke="current" stroke-width="2"/>
<circle cx="1346.5" cy="68.5" r="6.5" stroke="current" stroke-width="2"/>
</svg>
