<svg width="200" height="200" viewBox="0 0 200 200" fill="none" xmlns="http://www.w3.org/2000/svg">
<g id="Group 3">
<circle id="Ellipse 2" cx="134" cy="82" r="50" opacity="0.7" stroke="none" fill="#E9B9FF"/>
<g id="computer">
<path id="Vector 1" d="M39 130.329V62H161V130.329H39Z" stroke="current" stroke-width="8" fill="none" stroke-linejoin="round"/>
<path id="Vector 2" d="M110.167 147.242V134.388H87.9506V147.242H110.167Z" fill="current" stroke="current" stroke-width="8"/>
<path id="Vector 3" d="M66.8642 153.5H130.5" stroke="current" stroke-width="8" stroke-linecap="round" stroke-linejoin="round"/>
</g>
<g id="spaceship">
<g id="Vector 10">
<path d="M117.311 92.5205C121.311 88.1205 123.311 78.3538 123.811 74.0205C115.011 73.6205 106.144 79.1871 102.811 82.0205L90.811 95.5205H82.811L78.311 101.52L85.311 103.02L84.311 107.02C85.911 111.02 89.311 112.687 90.811 113.02L94.311 112.02L96.311 119.02L102.311 114.02V106.02C105.644 103.354 113.311 96.9205 117.311 92.5205Z" fill="current"/>
<path d="M82.311 108.52L81.811 107.52C76.611 111.92 76.6443 117.687 77.311 120.02C83.711 120.42 88.311 117.187 89.811 115.52L88.811 115.02C86.311 116.354 81.111 118.62 80.311 117.02C79.511 115.42 81.311 110.687 82.311 108.52Z" fill="current"/>
<path d="M117.311 92.5205C121.311 88.1205 123.311 78.3538 123.811 74.0205C115.011 73.6205 106.144 79.1871 102.811 82.0205L90.811 95.5205H82.811L78.311 101.52L85.311 103.02L84.311 107.02C85.911 111.02 89.311 112.687 90.811 113.02L94.311 112.02L96.311 119.02L102.311 114.02V106.02C105.644 103.354 113.311 96.9205 117.311 92.5205Z" stroke="current"/>
<path d="M82.311 108.52L81.811 107.52C76.611 111.92 76.6443 117.687 77.311 120.02C83.711 120.42 88.311 117.187 89.811 115.52L88.811 115.02C86.311 116.354 81.111 118.62 80.311 117.02C79.511 115.42 81.311 110.687 82.311 108.52Z" stroke="current"/>
</g>
<circle id="Ellipse 4" cx="109.811" cy="87.5205" r="4" stroke="none" fill="#E9B9FF"/>
</g>
</g>
</svg>
